<svg id="Layer_1" data-name="Layer 1" xmlns="http://www.w3.org/2000/svg" viewBox="0 0 5393.53 1047.14"><defs><style>.cls-1,.cls-4{fill:#fdfdfe;}.cls-1,.cls-2{fill-rule:evenodd;}.cls-2,.cls-3{fill:#e45d25;}</style></defs><title>fixmobile_logo</title><path class="cls-1" d="M377.28,588a110.47,110.47,0,1,1,156.23,0,110.47,110.47,0,0,1-156.23,0Z" transform="translate(-138.38 -192.91)"/><path class="cls-1" d="M183.75,368.46a92.06,92.06,0,1,1,130.19,0,92.06,92.06,0,0,1-130.19,0Z" transform="translate(-138.38 -192.91)"/><path class="cls-1" d="M533.51,1001.15a110.47,110.47,0,1,1,0-156.23,110.48,110.48,0,0,1,0,156.23Z" transform="translate(-138.38 -192.91)"/><path class="cls-1" d="M313.94,1194.69a92.06,92.06,0,1,1,0-130.19,92.08,92.08,0,0,1,0,130.19Z" transform="translate(-138.38 -192.91)"/><path class="cls-1" d="M740.05,1207.71a110.47,110.47,0,1,1,0-156.23,110.49,110.49,0,0,1,0,156.23Z" transform="translate(-138.38 -192.91)"/><path class="cls-2" d="M760.73,617.68a139.71,139.71,0,1,1-197.58,0,139.72,139.72,0,0,1,197.58,0Z" transform="translate(-138.38 -192.91)"/><path class="cls-2" d="M946.63,844.92a110.47,110.47,0,1,1-156.23,0,110.49,110.49,0,0,1,156.23,0Z" transform="translate(-138.38 -192.91)"/><path class="cls-2" d="M1140.17,1064.49a92.06,92.06,0,1,1-130.19,0,92.08,92.08,0,0,1,130.19,0Z" transform="translate(-138.38 -192.91)"/><path class="cls-2" d="M790.4,431.8a110.47,110.47,0,1,1,0,156.23,110.49,110.49,0,0,1,0-156.23Z" transform="translate(-138.38 -192.91)"/><path class="cls-2" d="M1010,238.27a92.05,92.05,0,1,1,0,130.19,92,92,0,0,1,0-130.19Z" transform="translate(-138.38 -192.91)"/><path class="cls-2" d="M997,638.34a110.46,110.46,0,1,1,0,156.22,110.48,110.48,0,0,1,0-156.22Z" transform="translate(-138.38 -192.91)"/><path class="cls-1" d="M170.73,638.4a110.47,110.47,0,1,0,156.23,0,110.49,110.49,0,0,0-156.23,0Z" transform="translate(-138.38 -192.91)"/><path class="cls-1" d="M740.1,381.49a110.47,110.47,0,1,0-156.22,0,110.49,110.49,0,0,0,156.22,0Z" transform="translate(-138.38 -192.91)"/><path class="cls-3" d="M1734.69,359v63.84q-35.88-15.37-61.5-15.38-19.12,0-31.69,7.69t-15.84,17.71q-3.27,10-3.26,53.35l-.06,68.5h105.83v56.38H1622.29l-.36,450.6h-65.24V611.12h-66.63V554.74h66.63V475.52q0-54.51,10-77.81t34-37.51q24-14.22,58-14.22Q1690.42,346,1734.69,359Z" transform="translate(-138.38 -192.91)"/><path class="cls-3" d="M1848.16,346A54,54,0,0,1,1902,400q0,21.9-15.78,37.74a51.69,51.69,0,0,1-38,15.84q-21.81,0-37.58-15.84T1794.8,400a52.18,52.18,0,0,1,15.78-38.21Q1826.34,346,1848.16,346Zm-32.39,208.76H1881v507h-65.24Z" transform="translate(-138.38 -192.91)"/><path class="cls-3" d="M1958.83,554.74h78.28L2172,740.2l133.42-185.46h78.42l-172.56,239.5,194.47,267.48h-79.46L2171.93,848.79l-153.42,212.93h-77.86l192.09-267Z" transform="translate(-138.38 -192.91)"/><path class="cls-4" d="M2546.74,376.27h127.12l158.9,478.09L2993.1,376.27h127l115,685.45H3109l-73.5-432.89-145.62,432.89h-115L2630.53,628.83l-75.26,432.89H2428.06Z" transform="translate(-138.38 -192.91)"/><path class="cls-4" d="M3563.17,541.69q71.76,0,134.9,35.88T3796.63,675A261.77,261.77,0,0,1,3832,807.76,266.15,266.15,0,0,1,3796.39,942q-35.64,62.46-97.15,97.62t-135.6,35.19q-109,0-186.16-77.59T3300.36,808.7q0-118.83,87.14-198Q3463.91,541.71,3563.17,541.69Zm2.1,119.76q-59.28,0-98.72,41.24t-39.44,105.54q0,66.16,39,107.17t98.72,41q59.74,0,99.42-41.47t39.68-106.71q0-65.24-39-106T3565.27,661.45Z" transform="translate(-138.38 -192.91)"/><path class="cls-4" d="M4062.23,359V610.66q34.47-34.49,74.56-51.73t85.73-17.24q99.25,0,168.69,75t69.43,192.45q0,113.24-71.76,189.42t-170.08,76.19q-43.81,0-81.55-15.61t-75-51v53.59H3936V359ZM4196,659.12q-60.1,0-99.71,41T4056.64,807.3q0,67.56,39.61,109.27t99.71,41.7q58.24,0,98.09-42.4t39.84-108.11q0-65.22-39.14-106.94T4196,659.12Z" transform="translate(-138.38 -192.91)"/><path class="cls-4" d="M4615.57,346q33.45,0,57.38,24.23t23.93,58.72q0,34-23.69,58t-56.69,24q-33.91,0-57.85-24.47t-23.92-59.41q0-33.54,23.69-57.31T4615.57,346ZM4552,554.74h127.21v507H4552Z" transform="translate(-138.38 -192.91)"/><path class="cls-4" d="M4780.76,359H4908v702.69H4780.76Z" transform="translate(-138.38 -192.91)"/><path class="cls-4" d="M5531.44,845H5122.78q8.85,54.06,47.3,86t98.09,31.92q71.3,0,122.55-49.86l107.17,50.33q-40.08,56.85-96,84.11t-132.8,27.26q-119.3,0-194.31-75.26t-75-188.49q0-116,74.79-192.67t187.55-76.66q119.74,0,194.78,76.66t75,202.46ZM5404.23,744.86q-12.6-42.4-49.71-69t-86.12-26.56q-53.2,0-93.35,29.82-25.2,18.65-46.67,65.71Z" transform="translate(-138.38 -192.91)"/></svg>