<svg xmlns="http://www.w3.org/2000/svg" viewBox="0 0 4756.87 1047.14"><defs><style>.cls-1,.cls-4{fill:#fdfdfe;}.cls-1,.cls-2{fill-rule:evenodd;}.cls-2,.cls-3{fill:#e45d25;}.cls-5{font-size:230.39px;fill:#fff;font-family:MyriadPro-Regular, Myriad Pro;}.cls-6{letter-spacing:0.01em;}.cls-7{letter-spacing:0.02em;}.cls-8{letter-spacing:-0.01em;}.cls-9{letter-spacing:0em;}</style></defs><title>fixmobile_logon</title><g id="Layer_1" data-name="Layer 1"><path class="cls-1" d="M377.28,588a110.47,110.47,0,1,1,156.23,0,110.47,110.47,0,0,1-156.23,0Z" transform="translate(-138.38 -192.91)"/><path class="cls-1" d="M183.75,368.46a92.06,92.06,0,1,1,130.19,0,92.06,92.06,0,0,1-130.19,0Z" transform="translate(-138.38 -192.91)"/><path class="cls-1" d="M533.51,1001.15a110.47,110.47,0,1,1,0-156.23,110.48,110.48,0,0,1,0,156.23Z" transform="translate(-138.38 -192.91)"/><path class="cls-1" d="M313.94,1194.69a92.06,92.06,0,1,1,0-130.19,92.08,92.08,0,0,1,0,130.19Z" transform="translate(-138.38 -192.91)"/><path class="cls-1" d="M740.05,1207.71a110.47,110.47,0,1,1,0-156.23,110.49,110.49,0,0,1,0,156.23Z" transform="translate(-138.38 -192.91)"/><path class="cls-2" d="M760.73,617.68a139.71,139.71,0,1,1-197.58,0,139.72,139.72,0,0,1,197.58,0Z" transform="translate(-138.38 -192.91)"/><path class="cls-2" d="M946.63,844.92a110.47,110.47,0,1,1-156.23,0,110.49,110.49,0,0,1,156.23,0Z" transform="translate(-138.38 -192.91)"/><path class="cls-2" d="M1140.17,1064.49a92.06,92.06,0,1,1-130.19,0,92.08,92.08,0,0,1,130.19,0Z" transform="translate(-138.38 -192.91)"/><path class="cls-2" d="M790.4,431.8a110.47,110.47,0,1,1,0,156.23,110.49,110.49,0,0,1,0-156.23Z" transform="translate(-138.38 -192.91)"/><path class="cls-2" d="M1010,238.27a92.05,92.05,0,1,1,0,130.19,92,92,0,0,1,0-130.19Z" transform="translate(-138.38 -192.91)"/><path class="cls-2" d="M997,638.34a110.46,110.46,0,1,1,0,156.22,110.48,110.48,0,0,1,0-156.22Z" transform="translate(-138.38 -192.91)"/><path class="cls-1" d="M170.73,638.4a110.47,110.47,0,1,0,156.23,0,110.49,110.49,0,0,0-156.23,0Z" transform="translate(-138.38 -192.91)"/><path class="cls-1" d="M740.1,381.49a110.47,110.47,0,1,0-156.22,0,110.49,110.49,0,0,0,156.22,0Z" transform="translate(-138.38 -192.91)"/><path class="cls-3" d="M1597.1,315.22v55.44q-31.17-13.35-53.43-13.35-16.59,0-27.52,6.68t-13.76,15.38q-2.84,8.7-2.83,46.34l0,59.49h91.92v49h-92l-.32,391.37h-56.66V534.18h-57.88v-49h57.88V416.4q0-47.36,8.7-67.59t29.55-32.58q20.84-12.35,50.39-12.35Q1558.64,303.88,1597.1,315.22Z" transform="translate(-138.38 -192.91)"/><path class="cls-3" d="M1695.65,303.88a46.89,46.89,0,0,1,46.75,46.95q0,19-13.71,32.79a44.94,44.94,0,0,1-33,13.76q-18.95,0-32.64-13.76a44.83,44.83,0,0,1-13.7-32.79,45.32,45.32,0,0,1,13.7-33.19Q1676.71,303.89,1695.65,303.88ZM1667.52,485.2h56.66V925.55h-56.66Z" transform="translate(-138.38 -192.91)"/><path class="cls-3" d="M1791.77,485.2h68l117.12,161.09L2092.77,485.2h68.12L2011,693.22l168.9,232.33h-69l-134-184.94L1843.61,925.55H1776l166.84-231.92Z" transform="translate(-138.38 -192.91)"/><path class="cls-4" d="M2302.42,330.19h110.41l138,415.25,139.26-415.25h110.35l99.87,595.36H2790.75l-63.84-376-126.48,376h-99.88l-125.36-376-65.36,376H2199.34Z" transform="translate(-138.38 -192.91)"/><path class="cls-4" d="M3185.26,473.87q62.32,0,117.17,31.16t85.6,84.59A227.27,227.27,0,0,1,3418.79,705a231.22,231.22,0,0,1-31,116.56q-31,54.24-84.39,84.8t-117.77,30.55q-94.71,0-161.69-67.38t-67-163.72q0-103.2,75.69-172Q3099.06,473.88,3185.26,473.87Zm1.82,104q-51.48,0-85.74,35.82t-34.26,91.67q0,57.47,33.85,93.08t85.75,35.62q51.89,0,86.35-36t34.46-92.68q0-56.67-33.85-92.08T3187.08,577.89Z" transform="translate(-138.38 -192.91)"/><path class="cls-4" d="M3618.73,315.22V533.77q29.94-29.94,64.76-44.92a186.43,186.43,0,0,1,74.47-15q86.2,0,146.51,65.16t60.31,167.16q0,98.34-62.33,164.52t-147.73,66.17q-38.05,0-70.83-13.56T3618.73,879v46.54H3509.05V315.22Zm116.16,260.64q-52.21,0-86.61,35.62t-34.41,93.09q0,58.68,34.41,94.91t86.61,36.22q50.58,0,85.19-36.83t34.61-93.9q0-56.65-34-92.88T3734.89,575.86Z" transform="translate(-138.38 -192.91)"/><path class="cls-4" d="M4099.35,303.88q29.06,0,49.84,21.05t20.78,51q0,29.54-20.58,50.38t-49.23,20.85q-29.46,0-50.25-21.25t-20.78-51.6q0-29.15,20.58-49.79T4099.35,303.88ZM4044.1,485.2h110.5V925.55H4044.1Z" transform="translate(-138.38 -192.91)"/><path class="cls-4" d="M4242.83,315.22h110.49V925.55H4242.83Z" transform="translate(-138.38 -192.91)"/><path class="cls-4" d="M4894.85,737.35h-355Q4547.58,784.3,4581,812t85.2,27.73q61.92,0,106.44-43.31l93.09,43.71q-34.81,49.4-83.38,73.06T4667,936.88q-103.62,0-168.78-65.36T4433.05,707.8q0-100.77,65-167.35t162.9-66.58q104,0,169.18,66.58t65.16,175.85Zm-110.49-87q-10.95-36.83-43.18-59.9t-74.8-23.07q-46.22,0-81.08,25.91-21.9,16.18-40.54,57.06Z" transform="translate(-138.38 -192.91)"/></g><g id="Layer_4" data-name="Layer 4"><text class="cls-5" transform="translate(1265.02 978.87)"><tspan class="cls-6">S</tspan><tspan x="114.96" y="0">e</tspan><tspan class="cls-7" x="230.38" y="0">r</tspan><tspan x="311.48" y="0">visa </tspan><tspan class="cls-8" x="727.31" y="0">C</tspan><tspan x="858.4" y="0">e</tspan><tspan class="cls-9" x="973.83" y="0">n</tspan><tspan x="1100.77" y="0">trs</tspan></text></g></svg>